<svg width="27" height="24" viewBox="0 0 27 24" fill="none" xmlns="http://www.w3.org/2000/svg">
<path d="M13.1261 21.5076C18.7421 21.5076 23.2947 16.955 23.2947 11.339C23.2947 5.72305 18.7421 1.17041 13.1261 1.17041C7.51016 1.17041 2.95752 5.72305 2.95752 11.339C2.95752 16.955 7.51016 21.5076 13.1261 21.5076Z" fill="#F4F4F4"/>
<path d="M23.2973 11.3391C23.2973 5.72313 18.7446 1.17049 13.1287 1.17049C7.51269 1.17049 2.96005 5.72313 2.96005 11.3391C2.96005 16.9551 7.51269 21.5077 13.1287 21.5077C18.7446 21.5077 23.2973 16.9551 23.2973 11.3391ZM1.78955 11.3391C1.78955 5.0767 6.86623 0 13.1287 0C19.3911 0 24.4678 5.0767 24.4678 11.3391C24.4678 17.6015 19.3911 22.6782 13.1287 22.6782C6.86623 22.6782 1.78955 17.6015 1.78955 11.3391Z" fill="black"/>
<path d="M16.4319 8.57137C16.8049 8.70305 16.9533 9.46971 17.33 9.26939C18.0434 8.89003 18.3143 8.00412 17.9349 7.29065C17.5556 6.57721 16.6697 6.30635 15.9562 6.68571C15.2427 7.06506 14.9719 7.95098 15.3512 8.66445C15.5303 9.0012 16.0986 8.45364 16.4319 8.57137Z" fill="black"/>
<path d="M9.53584 8.57137C9.16292 8.70305 9.01456 9.46971 8.63784 9.26939C7.92437 8.89003 7.65352 8.00412 8.03288 7.29065C8.41223 6.57721 9.29814 6.30635 10.0116 6.68571C10.7251 7.06506 10.9959 7.95098 10.6166 8.66445C10.4375 9.0012 9.8692 8.45364 9.53584 8.57137Z" fill="black"/>
<path d="M13.0558 15.5932C15.9318 15.5932 16.8599 13.029 16.8599 11.7122C16.8599 11.0279 16.3998 11.2433 15.663 11.6081C14.9821 11.9452 14.0648 12.4098 13.0558 12.4098C10.9549 12.4098 9.25171 10.3955 9.25171 11.7122C9.25171 13.029 10.1798 15.5932 13.0558 15.5932Z" fill="black"/>
<mask id="mask0_359_1131" style="mask-type:alpha" maskUnits="userSpaceOnUse" x="9" y="11" width="8" height="5">
<path d="M13.0551 15.5937C15.9311 15.5937 16.8591 13.0295 16.8591 11.7127C16.8591 11.0284 16.3991 11.2438 15.6623 11.6085C14.9814 11.9456 14.0641 12.4103 13.0551 12.4103C10.9541 12.4103 9.25098 10.3959 9.25098 11.7127C9.25098 13.0295 10.179 15.5937 13.0551 15.5937Z" fill="white"/>
</mask>
<g mask="url(#mask0_359_1131)">
<path d="M13.1292 18.582C14.5308 18.582 15.6671 17.4457 15.6671 16.0441C15.6671 14.9524 14.9778 14.0217 14.0106 13.6635C13.975 13.6503 13.9391 13.6379 13.9027 13.6262C13.6589 13.5483 13.399 14.3865 13.1292 14.3865C12.8772 14.3865 12.6337 13.543 12.4039 13.6114C11.3557 13.9234 10.5913 14.8945 10.5913 16.0441C10.5913 17.4457 11.7276 18.582 13.1292 18.582Z" fill="black"/>
</g>
<path d="M20.0055 9.94892C20.5307 9.94892 20.9565 9.52312 20.9565 8.9979C20.9565 8.47267 20.5307 8.04688 20.0055 8.04688C19.4802 8.04688 19.0544 8.47267 19.0544 8.9979C19.0544 9.52312 19.4802 9.94892 20.0055 9.94892Z" fill="black"/>
<path d="M6.39755 9.94892C6.92278 9.94892 7.34858 9.52312 7.34858 8.9979C7.34858 8.47267 6.92278 8.04688 6.39755 8.04688C5.8723 8.04688 5.44653 8.47267 5.44653 8.9979C5.44653 9.52312 5.8723 9.94892 6.39755 9.94892Z" fill="black"/>
<path d="M4.43979 13.168C3.96603 13.168 3.54261 13.3626 3.24735 13.7155C3.06475 13.9341 2.87397 14.2864 2.85846 14.814C2.65977 14.7569 2.46868 14.725 2.29018 14.725C1.83662 14.725 1.42695 14.8988 1.13725 15.2146C0.765039 15.6198 0.599707 16.1179 0.671692 16.6162C0.705929 16.8535 0.785229 17.0663 0.903741 17.2632C0.653842 17.4654 0.469783 17.7469 0.380826 18.0855C0.311182 18.3509 0.239782 18.9037 0.612583 19.4731C0.58888 19.5103 0.566641 19.5489 0.545865 19.5884C0.321716 20.0139 0.307378 20.4946 0.50519 20.9423C0.805128 21.6209 1.55044 22.1556 2.99774 22.7294C3.89814 23.0864 4.72187 23.3146 4.72919 23.3167C5.91957 23.6254 6.99613 23.7822 7.92813 23.7822C9.64114 23.7822 10.8675 23.2576 11.5733 22.2229C12.7093 20.5567 12.5469 19.0327 11.077 17.5637C10.2635 16.7508 9.72278 15.5523 9.61012 15.2892C9.38305 14.5102 8.78259 13.6444 7.78445 13.6444C7.70047 13.6444 7.61532 13.6511 7.53163 13.6643C7.09445 13.733 6.71229 13.9847 6.43927 14.3633C6.1446 13.997 5.85842 13.7055 5.59945 13.5411C5.20909 13.2935 4.81902 13.168 4.43979 13.168ZM4.43979 14.3385C4.58902 14.3385 4.77133 14.402 4.97236 14.5295C5.59652 14.9255 6.80095 16.9958 7.24193 17.8011C7.38971 18.0708 7.64224 18.185 7.86961 18.185C8.32083 18.185 8.67315 17.7364 7.91087 17.1664C6.76467 16.3087 7.16673 14.9067 7.71393 14.8204C7.73793 14.8166 7.76163 14.8148 7.78445 14.8148C8.28191 14.8148 8.50138 15.6722 8.50138 15.6722C8.50138 15.6722 9.14456 17.2875 10.2495 18.3916C11.3544 19.4959 11.4115 20.3823 10.6062 21.5633C10.057 22.3686 9.00557 22.6118 7.92813 22.6118C6.81061 22.6118 5.66499 22.3502 5.02298 22.1837C4.99138 22.1755 1.08692 21.0726 1.58145 20.1338C1.66456 19.9761 1.80151 19.9129 1.97386 19.9129C2.6703 19.9129 3.93706 20.9494 4.48163 20.9494C4.60336 20.9494 4.6891 20.8976 4.72421 20.7712C4.95626 19.9387 1.19607 19.5887 1.51298 18.3828C1.56887 18.1695 1.72045 18.0828 1.93348 18.0831C2.85377 18.0831 4.91851 19.7016 5.3513 19.7016C5.38437 19.7016 5.40807 19.692 5.42095 19.6715C5.63778 19.3215 5.51898 19.0772 3.99061 18.1522C2.46225 17.2269 1.38949 16.6704 1.99961 16.0061C2.06984 15.9294 2.16933 15.8955 2.29018 15.8955C3.21809 15.8958 5.41041 17.8909 5.41041 17.8909C5.41041 17.8909 6.00209 18.5063 6.35997 18.5063C6.4422 18.5063 6.51213 18.4738 6.55954 18.3936C6.81324 17.9658 4.20305 15.9877 4.05587 15.1716C3.95608 14.6185 4.1258 14.3385 4.43979 14.3385Z" fill="black"/>
<path d="M10.6054 21.5627C11.4106 20.3817 11.3536 19.4954 10.2486 18.391C9.14371 17.2869 8.50052 15.6717 8.50052 15.6717C8.50052 15.6717 8.26028 14.7335 7.71308 14.8199C7.16587 14.9062 6.7641 16.3081 7.9103 17.1658C9.0565 18.0232 7.68206 18.6058 7.24108 17.8005C6.8001 16.9952 5.59596 14.9249 4.9715 14.529C4.34734 14.1331 3.90782 14.3549 4.05501 15.171C4.2022 15.9871 6.81268 17.9652 6.55868 18.3933C6.30469 18.8212 5.40956 17.8903 5.40956 17.8903C5.40956 17.8903 2.60858 15.3413 1.99874 16.0056C1.38892 16.6698 2.46139 17.2264 3.98975 18.1516C5.51841 19.0766 5.63692 19.321 5.42009 19.6709C5.20296 20.0209 1.82902 17.1763 1.51211 18.3822C1.19549 19.5881 4.95541 19.9381 4.72336 20.7706C4.49131 21.6034 2.07482 19.1948 1.58058 20.1333C1.08605 21.072 4.99052 22.1749 5.02212 22.1831C6.28333 22.5102 9.48637 23.2035 10.6054 21.5627Z" fill="#F4F4F4"/>
<path d="M21.9595 13.168C22.4332 13.168 22.8567 13.3626 23.1519 13.7155C23.3345 13.9341 23.5253 14.2864 23.5408 14.814C23.7395 14.7569 23.9306 14.725 24.1091 14.725C24.5626 14.725 24.9723 14.8988 25.262 15.2146C25.6342 15.6198 25.7996 16.1179 25.7276 16.6162C25.6933 16.8535 25.614 17.0663 25.4955 17.2632C25.7454 17.4654 25.9295 17.7469 26.0184 18.0855C26.0881 18.3509 26.1595 18.9037 25.7867 19.4731C25.8104 19.5103 25.8326 19.5489 25.8534 19.5884C26.0775 20.0139 26.0919 20.4946 25.8941 20.9423C25.5941 21.6209 24.8488 22.1556 23.4015 22.7294C22.5011 23.0864 21.6774 23.3146 21.6701 23.3167C20.4797 23.6254 19.4031 23.7822 18.4711 23.7822C16.7581 23.7822 15.5317 23.2576 14.8259 22.2229C13.69 20.5567 13.8524 19.0327 15.3222 17.5637C16.1357 16.7508 16.6765 15.5523 16.7891 15.2892C17.0162 14.5102 17.6167 13.6444 18.6148 13.6444C18.6988 13.6444 18.7839 13.6511 18.8676 13.6643C19.3048 13.733 19.687 13.9847 19.96 14.3633C20.2547 13.997 20.5408 13.7055 20.7998 13.5411C21.1902 13.2935 21.5802 13.168 21.9595 13.168ZM21.9595 14.3385C21.8102 14.3385 21.6279 14.402 21.4269 14.5295C20.8027 14.9255 19.5983 16.9958 19.1573 17.8011C19.0096 18.0708 18.757 18.185 18.5297 18.185C18.0784 18.185 17.7261 17.7364 18.4884 17.1664C19.6346 16.3087 19.2325 14.9067 18.6853 14.8204C18.6613 14.8166 18.6376 14.8148 18.6148 14.8148C18.1174 14.8148 17.8979 15.6722 17.8979 15.6722C17.8979 15.6722 17.2547 17.2875 16.1498 18.3916C15.0448 19.4959 14.9878 20.3823 15.7931 21.5633C16.3423 22.3686 17.3937 22.6118 18.4711 22.6118C19.5887 22.6118 20.7343 22.3502 21.3763 22.1837C21.4079 22.1755 25.3123 21.0726 24.8178 20.1338C24.7347 19.9761 24.5978 19.9129 24.4254 19.9129C23.729 19.9129 22.4622 20.9494 21.9176 20.9494C21.7959 20.9494 21.7102 20.8976 21.6751 20.7712C21.443 19.9387 25.2032 19.5887 24.8863 18.3828C24.8304 18.1695 24.6788 18.0828 24.4658 18.0831C23.5455 18.0831 21.4807 19.7016 21.048 19.7016C21.0149 19.7016 20.9912 19.692 20.9783 19.6715C20.7615 19.3215 20.8803 19.0772 22.4087 18.1522C23.937 17.2269 25.0098 16.6704 24.3997 16.0061C24.3294 15.9294 24.2299 15.8955 24.1091 15.8955C23.1812 15.8958 20.9889 17.8909 20.9889 17.8909C20.9889 17.8909 20.3972 18.5063 20.0393 18.5063C19.9571 18.5063 19.8871 18.4738 19.8397 18.3936C19.586 17.9658 22.1962 15.9877 22.3434 15.1716C22.4432 14.6185 22.2735 14.3385 21.9595 14.3385Z" fill="black"/>
<path d="M15.7957 21.5627C14.9904 20.3817 15.0475 19.4954 16.1524 18.391C17.2573 17.2869 17.9005 15.6717 17.9005 15.6717C17.9005 15.6717 18.1408 14.7335 18.688 14.8199C19.2352 14.9062 19.6369 16.3081 18.4907 17.1658C17.3445 18.0232 18.719 18.6058 19.16 17.8005C19.6009 16.9952 20.8051 14.9249 21.4295 14.529C22.0537 14.1331 22.4932 14.3549 22.346 15.171C22.1988 15.9871 19.5884 17.9652 19.8424 18.3933C20.0963 18.8212 20.9915 17.8903 20.9915 17.8903C20.9915 17.8903 23.7925 15.3413 24.4023 16.0056C25.0121 16.6698 23.9396 17.2264 22.4113 18.1516C20.8826 19.0766 20.7641 19.321 20.9809 19.6709C21.1981 20.0209 24.572 17.1763 24.8889 18.3822C25.2055 19.5881 21.4456 19.9381 21.6777 20.7706C21.9097 21.6034 24.3262 19.1948 24.8204 20.1333C25.315 21.072 21.4105 22.1749 21.3789 22.1831C20.1177 22.5102 16.9147 23.2035 15.7957 21.5627Z" fill="#F4F4F4"/>
</svg>
