<svg width="23" height="23" viewBox="0 0 23 23" fill="none" xmlns="http://www.w3.org/2000/svg">
<g clip-path="url(#clip0_359_1127)">
<path d="M11.3464 2.01109C14.3276 2.01109 14.6776 2.02437 15.8559 2.07753C16.9456 2.12626 17.5347 2.30787 17.929 2.46291C18.4517 2.66668 18.8238 2.90588 19.2136 3.2957C19.6034 3.68551 19.847 4.05761 20.0464 4.58031C20.197 4.97456 20.383 5.56371 20.4317 6.65341C20.4849 7.83171 20.4982 8.18166 20.4982 11.1629C20.4982 14.144 20.4849 14.494 20.4317 15.6723C20.383 16.762 20.2014 17.3511 20.0464 17.7454C19.8426 18.2681 19.6034 18.6402 19.2136 19.03C18.8238 19.4198 18.4517 19.6634 17.929 19.8628C17.5347 20.0134 16.9456 20.1994 15.8559 20.2482C14.6776 20.3013 14.3276 20.3146 11.3464 20.3146C8.36522 20.3146 8.01528 20.3013 6.83698 20.2482C5.74727 20.1994 5.15812 20.0178 4.76387 19.8628C4.24117 19.659 3.86907 19.4198 3.47926 19.03C3.08945 18.6402 2.84581 18.2681 2.64647 17.7454C2.49586 17.3511 2.30982 16.762 2.26109 15.6723C2.20793 14.494 2.19464 14.144 2.19464 11.1629C2.19464 8.18166 2.20793 7.83171 2.26109 6.65341C2.30982 5.56371 2.49144 4.97456 2.64647 4.58031C2.85024 4.05761 3.08945 3.68551 3.47926 3.2957C3.86907 2.90588 4.24117 2.66225 4.76387 2.46291C5.15812 2.3123 5.74727 2.12626 6.83698 2.07753C8.01528 2.01994 8.36965 2.01109 11.3464 2.01109ZM11.3464 0C8.3165 0 7.93554 0.0132891 6.74395 0.0664455C5.55679 0.119602 4.74616 0.310079 4.0374 0.584721C3.30207 0.868222 2.68191 1.25361 2.06175 1.87376C1.44159 2.49392 1.06064 3.11851 0.772709 3.84941C0.498068 4.55816 0.30759 5.3688 0.254434 6.56039C0.201277 7.74755 0.187988 8.1285 0.187988 11.1584C0.187988 14.1883 0.201277 14.5693 0.254434 15.7609C0.30759 16.948 0.498068 17.7587 0.772709 18.4719C1.05621 19.2072 1.44159 19.8273 2.06175 20.4475C2.68191 21.0677 3.3065 21.4486 4.0374 21.7366C4.74616 22.0112 5.55679 22.2017 6.74838 22.2548C7.93997 22.308 8.3165 22.3213 11.3508 22.3213C14.3852 22.3213 14.7617 22.308 15.9533 22.2548C17.1405 22.2017 17.9511 22.0112 18.6643 21.7366C19.3996 21.453 20.0198 21.0677 20.6399 20.4475C21.2601 19.8273 21.6411 19.2028 21.929 18.4719C22.2036 17.7631 22.3941 16.9525 22.4473 15.7609C22.5004 14.5693 22.5137 14.1928 22.5137 11.1584C22.5137 8.12407 22.5004 7.74755 22.4473 6.55596C22.3941 5.3688 22.2036 4.55816 21.929 3.84498C21.6455 3.10965 21.2601 2.48949 20.6399 1.86933C20.0198 1.24918 19.3952 0.868222 18.6643 0.580291C17.9555 0.305649 17.1449 0.115172 15.9533 0.0620158C14.7573 0.0132891 14.3763 0 11.3464 0Z" fill="black"/>
<path d="M11.3458 5.43115C8.183 5.43115 5.61377 7.99595 5.61377 11.1632C5.61377 14.3304 8.17857 16.8952 11.3458 16.8952C14.513 16.8952 17.0778 14.3304 17.0778 11.1632C17.0778 7.99595 14.513 5.43115 11.3458 5.43115ZM11.3458 14.8797C9.29042 14.8797 7.62485 13.2141 7.62485 11.1588C7.62485 9.10337 9.29042 7.43781 11.3458 7.43781C13.4012 7.43781 15.0668 9.10337 15.0668 11.1588C15.0668 13.2141 13.4012 14.8797 11.3458 14.8797Z" fill="black"/>
<path d="M17.3031 6.53736C18.0419 6.53736 18.6409 5.93842 18.6409 5.19959C18.6409 4.46076 18.0419 3.86182 17.3031 3.86182C16.5643 3.86182 15.9653 4.46076 15.9653 5.19959C15.9653 5.93842 16.5643 6.53736 17.3031 6.53736Z" fill="black"/>
</g>
<defs>
<clipPath id="clip0_359_1127">
<rect width="22.3168" height="22.3168" fill="white" transform="translate(0.187988)"/>
</clipPath>
</defs>
</svg>
